Motion_pl06
version=1
nRows=16
nColumns=43
inDegrees=yes
endheader
time	pelvis_tilt	pelvis_list	pelvis_rotation	pelvis_tx	pelvis_ty	pelvis_tz	hip_flexion_r	hip_adduction_r	hip_rotation_r	knee_angle_r	ankle_angle_r	subtalar_angle_r	mtp_angle_r	hip_flexion_l	hip_adduction_l	hip_rotation_l	knee_angle_l	ankle_angle_l	subtalar_angle_l	mtp_angle_l	lumbar_extension	lumbar_bending	lumbar_rotation	neck_flexion	neck_lateral_bending	neck_rotation	arm_flex_r	arm_add_r	arm_rot_r	elbow_flex_r	pro_sup_r	wrist_flex_r	wrist_dev_r	hand_finger_flex_r	arm_flex_l	arm_add_l	arm_rot_l	elbow_flex_l	pro_sup_l	wrist_flex_l	wrist_dev_l	hand_finger_flex_l
      2.15250000	      2.04448155	     -6.35401801	     91.77421923	     -0.01554644	      0.91330974	      0.34318274	     24.47583589	     -1.29833580	     -4.62363461	    -35.95389277	     -5.60729346	     -7.50862322	     16.70174406	     24.71063182	     -0.43858261	     -0.38866189	    -32.59252113	     -2.12484308	    -14.17157410	     22.39306852	    -65.00269266	     -1.58305014	      1.51119380	     11.66190416	      5.51531111	     -5.29241229	     11.58981052	    -17.41148971	     -1.58057043	     37.83095348	    119.89579154	    -16.82872254	     -6.91480421	     28.02637514	      0.71391496	    -19.67789078	    -29.60051632	     35.10478651	    151.42084576	    -11.02196513	      6.08824686	     68.27529082
      2.15500000	      2.01958777	     -5.34611159	     91.75720482	     -0.01552960	      0.91551948	      0.34160747	     23.02651752	     -1.35180974	     -4.91644611	    -35.46732481	     -5.60376151	     -7.10101348	     17.12179110	     23.27029570	     -0.50259092	     -0.60877712	    -32.12213642	     -2.08418055	    -13.98227401	     22.47599374	    -65.78303941	     -1.55739688	      1.53945767	     11.59873223	      5.52887595	     -5.16952222	     11.66370445	    -17.47400990	     -1.44111671	     37.83814355	    119.14017520	    -17.31888101	     -7.01551500	     28.35161036	      0.83467845	    -19.74989898	    -29.39145309	     35.15721975	    151.11258137	    -11.07423905	      6.02557031	     68.30698235
      2.15750000	      2.00957685	     -5.35078786	     91.74969944	     -0.01534137	      0.91576316	      0.34128912	     22.94829336	     -1.35364233	     -4.94685354	    -35.35188609	     -5.60672769	     -7.08654774	     17.15143072	     23.15164514	     -0.50689909	     -0.61285140	    -31.92680465	     -2.09217093	    -13.95687924	     22.48029855	    -65.49318608	     -1.55444271	      1.53844640	     11.46104375	      5.54027593	     -5.17164330	     11.65476332	    -17.52144728	     -1.40192624	     37.92495475	    119.11099422	    -17.34746781	     -7.03058794	     28.38650041	      0.87650733	    -19.77700069	    -29.39348975	     35.29533219	    151.08035233	    -11.10135312	      6.00950086	     68.31878035
      2.16000000	      1.98996813	     -5.32444031	     91.73459933	     -0.01519728	      0.91608328	      0.34094112	     22.81995229	     -1.36709938	     -4.98306046	    -35.20482905	     -5.62281384	     -7.05484468	     17.18692135	     23.00028042	     -0.50611532	     -0.64150789	    -31.73726150	     -2.11216959	    -13.93576923	     22.48393032	    -65.23054643	     -1.54271998	      1.55099491	     11.28086412	      5.55877142	     -5.15631945	     11.65972686	    -17.57045122	     -1.37420678	     38.01038588	    119.06396796	    -17.40127618	     -7.04903383	     28.41751369	      0.91691527	    -19.77669609	    -29.38616009	     35.43860542	    151.03577991	    -11.13564840	      5.98238730	     68.33771441
      2.16250000	      1.98711537	     -5.27990637	     91.71640371	     -0.01508947	      0.91635840	      0.34061045	     22.74931093	     -1.36104524	     -4.98588476	    -35.22445074	     -5.62825464	     -7.05232665	     17.18802200	     22.92316447	     -0.51289618	     -0.64364545	    -31.75717592	     -2.11702798	    -13.93512659	     22.48379525	    -65.01488604	     -1.52694273	      1.52473274	     11.29750982	      5.55972287	     -5.15524227	     11.72706532	    -17.58942122	     -1.38305601	     38.05330076	    119.06083691	    -17.40956036	     -7.05671448	     28.41711522	      0.99088497	    -19.80258397	    -29.38695567	     35.48953244	    151.03154581	    -11.14303957	      5.97609739	     68.33823962
      2.16500000	      1.96537036	     -5.26147069	     91.72561717	     -0.01490652	      0.91669853	      0.34022824	     22.55775473	     -1.37646322	     -5.03383650	    -34.93282767	     -5.63493555	     -7.01231283	     17.21615340	     22.72356251	     -0.50711216	     -0.71450066	    -31.42693920	     -2.14155409	    -13.92506923	     22.48206592	    -64.72236976	     -1.52017323	      1.56263999	     11.01890026	      5.56419274	     -5.10874922	     11.67627958	    -17.63674824	     -1.35867268	     38.14863938	    119.02179969	    -17.47784818	     -7.08758760	     28.42778564	      1.04318826	    -19.80501533	    -29.38813015	     35.67937909	    150.97307317	    -11.18695888	      5.93004923	     68.36326244
      2.16750000	      1.92304563	     -4.50840960	     91.65862712	     -0.01484446	      0.91838781	      0.33896760	     21.46934332	     -1.40570032	     -5.17039996	    -34.56017284	     -5.65632200	     -6.76390068	     17.54131137	     21.61977133	     -0.54289899	     -0.97328406	    -31.03541799	     -2.21926951	    -13.91780686	     22.52681893	    -65.20734403	     -1.53934658	      1.54986425	     10.81161313	      5.56299108	     -4.94250188	     11.76377531	    -17.70669268	     -1.05163269	     38.13960311	    118.64680828	    -18.02347594	     -7.17571641	     28.48629261	      1.13957506	    -19.84600712	    -29.24275924	     35.69416614	    150.62570433	    -11.41561075	      5.76456864	     68.57255246
      2.17000000	      1.91787205	     -4.46848495	     91.64429096	     -0.01467399	      0.91866959	      0.33860727	     21.39860653	     -1.39829259	     -5.17412275	    -34.57755059	     -5.66033949	     -6.76278452	     17.54263966	     21.54560598	     -0.55017287	     -0.97492803	    -31.05003592	     -2.22306251	    -13.91633020	     22.52689888	    -64.98541954	     -1.52642856	      1.52422545	     10.82605154	      5.56198645	     -4.94177662	     11.83226852	    -17.71808304	     -1.05609064	     38.18874893	    118.64450636	    -18.02926783	     -7.18499882	     28.48665192	      1.22109775	    -19.87002380	    -29.24272405	     35.75180864	    150.62088119	    -11.42363040	      5.75792586	     68.57364029
      2.17250000	      1.89838676	     -4.48587811	     91.65775748	     -0.01452482	      0.91893434	      0.33830757	     21.26418043	     -1.40463768	     -5.22304843	    -34.31164636	     -5.65150999	     -6.75847465	     17.56702784	     21.40682232	     -0.54582515	     -1.02832445	    -30.74623089	     -2.24796322	    -13.88315559	     22.52779891	    -64.66548015	     -1.50693272	      1.54083897	     10.56718724	      5.55478538	     -4.90546704	     11.78151219	    -17.76647279	     -1.01413908	     38.32775140	    118.62718621	    -18.06285132	     -7.22108770	     28.49805372	      1.29188971	    -19.86289794	    -29.24107445	     35.94499793	    150.56364275	    -11.45245815	      5.72599691	     68.60376195
      2.17500000	      1.89392644	     -4.44086492	     91.64395053	     -0.01435614	      0.91921462	      0.33791821	     21.18878737	     -1.39742542	     -5.22608120	    -34.33108459	     -5.65764486	     -6.75657101	     17.56801503	     21.32653814	     -0.55503903	     -1.03132152	    -30.76576502	     -2.25407972	    -13.88159637	     22.52759128	    -64.44293822	     -1.49245482	      1.51434194	     10.57843976	      5.55356781	     -4.90205193	     11.84937155	    -17.77811779	     -1.01953760	     38.37619791	    118.62536536	    -18.07051307	     -7.22997039	     28.49678308	      1.37817140	    -19.88686564	    -29.24105752	     36.00336290	    150.55731060	    -11.45957054	      5.71841607	     68.60484638
      2.17750000	      1.87977552	     -4.39366377	     91.65704527	     -0.01425574	      0.91959526	      0.33754633	     20.96950078	     -1.40145205	     -5.28224646	    -34.04121972	     -5.67760766	     -6.74002225	     17.59115532	     21.11139301	     -0.55910876	     -1.09565070	    -30.45736242	     -2.31338788	    -13.83640982	     22.52519167	    -64.17258584	     -1.46163723	      1.54630985	     10.22095213	      5.54831665	     -4.81641288	     11.78916914	    -17.83452595	     -0.99280746	     38.52969032	    118.60950433	    -18.14060095	     -7.25933852	     28.48273506	      1.46965760	    -19.86416407	    -29.23833363	     36.18915816	    150.46067282	    -11.46240564	      5.66890636	     68.63986283
      2.18000000	      1.87533229	     -4.34530026	     91.64255209	     -0.01407422	      0.91987300	      0.33713570	     20.89025853	     -1.39390865	     -5.28537340	    -34.06292542	     -5.68464709	     -6.73759342	     17.59202806	     21.02664427	     -0.57072745	     -1.09711905	    -30.47955592	     -2.31942197	    -13.83505808	     22.52498373	    -63.94995904	     -1.44862434	      1.51765865	     10.23353835	      5.54660292	     -4.81181418	     11.86018025	    -17.84472988	     -0.99905813	     38.57858600	    118.60758137	    -18.14907647	     -7.26745587	     28.48055775	      1.56182248	    -19.89017091	    -29.23828628	     36.24849341	    150.45274337	    -11.46843772	      5.66037131	     68.64071855
      2.18250000	      1.86600156	     -3.84905061	     91.63671705	     -0.01380826	      0.92102043	      0.33626529	     20.15621939	     -1.38183848	     -5.42179766	    -33.77973116	     -5.81632858	     -6.64912879	     17.68744046	     20.26118182	     -0.62649270	     -1.20535568	    -30.11902744	     -2.47707855	    -13.73763050	     22.52907706	    -64.10268333	     -1.43515032	      1.55823198	      9.65493221	      5.56471637	     -4.57296092	     11.79995394	    -17.86729062	     -0.96301666	     38.77243806	    118.50451333	    -18.39445164	     -7.22349949	     28.39048283	      1.68568181	    -19.93769366	    -29.20254186	     36.34668030	    150.05622202	    -11.35215908	      5.50199512	     68.73201871
      2.18500000	      1.82944102	     -3.83460123	     91.63190878	     -0.01373659	      0.92135152	      0.33583051	     19.98710216	     -1.40757491	     -5.42153970	    -33.54084093	     -5.78218195	     -6.64168149	     17.70696065	     20.12862499	     -0.59100391	     -1.23217302	    -29.94834028	     -2.42728915	    -13.73970552	     22.53648919	    -63.84886727	     -1.42887989	      1.55290067	      9.67804936	      5.53084840	     -4.55454692	     11.84244315	    -17.90401133	     -0.95113101	     38.79343882	    118.48929064	    -18.40543681	     -7.21188245	     28.38955252	      1.80679738	    -19.92812516	    -29.17835920	     36.48787659	    149.99322654	    -11.35226796	      5.46571119	     68.74242876
      2.18750000	      1.82560624	     -3.78879700	     91.60704618	     -0.01359454	      0.92163666	      0.33542497	     19.91014369	     -1.40190394	     -5.42431185	    -33.55803653	     -5.78644559	     -6.63944727	     17.70812471	     20.04309199	     -0.60124141	     -1.23156897	    -29.96633883	     -2.43125734	    -13.73876411	     22.53644899	    -63.62600526	     -1.41507325	      1.51728336	      9.69071962	      5.53325291	     -4.55416518	     11.93193137	    -17.91637403	     -0.96095003	     38.85218207	    118.48570526	    -18.41352794	     -7.22130919	     28.38768451	      1.90189014	    -19.93853079	    -29.17246468	     36.55051188	    149.98391907	    -11.35760132	      5.45510865	     68.74278838
      2.19000000	      1.76996555	     -3.74752563	     91.55981106	     -0.01346393	      0.92209749	      0.33504659	     19.68623418	     -1.43675350	     -5.43293153	    -33.22780242	     -5.79802196	     -6.59812466	     17.72618629	     19.80721211	     -0.55768649	     -1.24647226	    -29.62587503	     -2.45564591	    -13.72049817	     22.53341524	    -63.37475354	     -1.45775227	      1.53003980	      9.40096232	      5.53003762	     -4.51452445	     11.92560248	    -17.96488193	     -0.98076548	     38.98240158	    118.43937979	    -18.44654033	     -7.22498363	     28.38391952	      1.99849877	    -19.91312919	    -29.16362702	     36.78486446	    149.84875721	    -11.35892212	      5.37163052	     68.76002450
